<?xml version="1.0" standalone="no"?><svg xmlns="http://www.w3.org/2000/svg" viewBox="0 0 1440 320"><path fill="#0099ff" fill-opacity="1" d="M0,128L30,154.7C60,181,120,235,180,256C240,277,300,267,360,240C420,213,480,171,540,154.7C600,139,660,149,720,170.7C780,192,840,224,900,234.7C960,245,1020,235,1080,202.7C1140,171,1200,117,1260,90.7C1320,64,1380,64,1410,64L1440,64L1440,320L1410,320C1380,320,1320,320,1260,320C1200,320,1140,320,1080,320C1020,320,960,320,900,320C840,320,780,320,720,320C660,320,600,320,540,320C480,320,420,320,360,320C300,320,240,320,180,320C120,320,60,320,30,320L0,320Z"></path></svg>